<?xml version="1.0" encoding="utf-8"?>
<!-- Generator: Adobe Illustrator 19.2.1, SVG Export Plug-In . SVG Version: 6.00 Build 0)  -->
<svg version="1.1" id="Слой_1" xmlns="http://www.w3.org/2000/svg" xmlns:xlink="http://www.w3.org/1999/xlink" x="0px" y="0px"
	 viewBox="0 0 69.5 60.5834961" style="enable-background:new 0 0 69.5 60.5834961;" xml:space="preserve">
<style type="text/css">
	
		.st0{clip-path:url(#SVGID_2_);fill:none;stroke:#000000;stroke-width:3;stroke-linecap:round;stroke-linejoin:round;stroke-miterlimit:10;}
	.st1{fill:none;stroke:#000000;stroke-width:3;stroke-linecap:round;stroke-linejoin:round;stroke-miterlimit:10;}
	
		.st2{clip-path:url(#SVGID_4_);fill:none;stroke:#000000;stroke-width:3;stroke-linecap:round;stroke-linejoin:round;stroke-miterlimit:10;}
	
		.st3{clip-path:url(#SVGID_6_);fill:none;stroke:#000000;stroke-width:3;stroke-linecap:round;stroke-linejoin:round;stroke-miterlimit:10;}
	
		.st4{clip-path:url(#SVGID_8_);fill:none;stroke:#000000;stroke-width:3;stroke-linecap:round;stroke-linejoin:round;stroke-miterlimit:10;}
	
		.st5{clip-path:url(#SVGID_10_);fill:none;stroke:#000000;stroke-width:3;stroke-linecap:round;stroke-linejoin:round;stroke-miterlimit:10;}
	
		.st6{clip-path:url(#SVGID_12_);fill:none;stroke:#000000;stroke-width:3;stroke-linecap:round;stroke-linejoin:round;stroke-miterlimit:10;}
</style>
<g>
	<defs>
		<rect id="SVGID_1_" y="-0.0005035" width="69.5" height="60.5839996"/>
	</defs>
	<clipPath id="SVGID_2_">
		<use xlink:href="#SVGID_1_"  style="overflow:visible;"/>
	</clipPath>
	<polyline class="st0" points="33.0051003,57.6672974 34.7500992,55.9222946 36.4950981,57.6672974 	"/>
</g>
<rect x="33.5160751" y="48.4334221" transform="matrix(0.7069034 -0.7073101 0.7073101 0.7069034 -24.9450264 39.1361542)" class="st1" width="2.4674494" height="2.4674494"/>
<g>
	<defs>
		<rect id="SVGID_3_" y="-0.0005035" width="69.5" height="60.5839996"/>
	</defs>
	<clipPath id="SVGID_4_">
		<use xlink:href="#SVGID_3_"  style="overflow:visible;"/>
	</clipPath>
	
		<rect x="39.5160751" y="52.4334221" transform="matrix(0.7069035 -0.70731 0.70731 0.7069035 -26.015686 44.5523911)" class="st2" width="2.4674494" height="2.4674494"/>
	<polyline class="st2" points="45.0051003,57.6672974 46.7500992,55.9222946 48.4950981,57.6672974 	"/>
</g>
<rect x="45.5160751" y="48.4334221" transform="matrix(0.7069034 -0.7073101 0.7073101 0.7069034 -21.427866 47.6238747)" class="st1" width="2.4674494" height="2.4674494"/>
<g>
	<defs>
		<rect id="SVGID_5_" y="-0.0005035" width="69.5" height="60.5839996"/>
	</defs>
	<clipPath id="SVGID_6_">
		<use xlink:href="#SVGID_5_"  style="overflow:visible;"/>
	</clipPath>
	
		<rect x="51.5160751" y="52.4334221" transform="matrix(0.7069035 -0.70731 0.70731 0.7069035 -22.4985275 53.0401115)" class="st3" width="2.4674494" height="2.4674494"/>
	
		<rect x="63.516571" y="52.4334221" transform="matrix(0.7069035 -0.70731 0.70731 0.7069035 -18.9812241 61.528183)" class="st3" width="2.4674482" height="2.4674482"/>
	<polyline class="st3" points="57.0051003,57.6672974 58.7500992,55.9222946 60.4950981,57.6672974 	"/>
</g>
<rect x="57.5165749" y="48.4334221" transform="matrix(0.7069034 -0.7073101 0.7073101 0.7069034 -17.9105606 56.1119499)" class="st1" width="2.4674494" height="2.4674494"/>
<g>
	<defs>
		<rect id="SVGID_7_" y="-0.0005035" width="69.5" height="60.5839996"/>
	</defs>
	<clipPath id="SVGID_8_">
		<use xlink:href="#SVGID_7_"  style="overflow:visible;"/>
	</clipPath>
	
		<rect x="27.5160751" y="52.2654228" transform="matrix(0.7073092 -0.7069043 0.7069043 0.7073092 -29.4039745 35.9820633)" class="st4" width="2.4674489" height="2.4674489"/>
	<polyline class="st4" points="24.4948997,57.4992981 22.7498989,55.7542953 21.0048981,57.4992981 	"/>
</g>
<rect x="21.5160751" y="48.2654228" transform="matrix(0.7073093 -0.7069042 0.7069042 0.7073093 -28.3325005 30.5698681)" class="st1" width="2.4674489" height="2.4674489"/>
<g>
	<defs>
		<rect id="SVGID_9_" y="-0.0005035" width="69.5" height="60.5839996"/>
	</defs>
	<clipPath id="SVGID_10_">
		<use xlink:href="#SVGID_9_"  style="overflow:visible;"/>
	</clipPath>
	
		<rect x="15.5160751" y="52.2654228" transform="matrix(0.7073092 -0.7069043 0.7069043 0.7073092 -32.9162636 27.4992123)" class="st5" width="2.4674489" height="2.4674489"/>
	
		<rect x="3.5160756" y="52.2654228" transform="matrix(0.7073094 -0.7069041 0.7069041 0.7073094 -36.4285431 19.0163498)" class="st5" width="2.4674492" height="2.4674492"/>
	<polyline class="st5" points="12.4948997,57.4992981 10.7498989,55.7542953 9.004899,57.4992981 	"/>
</g>
<rect x="9.5160751" y="48.2654228" transform="matrix(0.7073095 -0.706904 0.706904 0.7073095 -31.84478 22.0870056)" class="st1" width="2.4674492" height="2.4674492"/>
<g>
	<defs>
		<rect id="SVGID_11_" y="-0.0005035" width="69.5" height="60.5839996"/>
	</defs>
	<clipPath id="SVGID_12_">
		<use xlink:href="#SVGID_11_"  style="overflow:visible;"/>
	</clipPath>
	<line class="st6" x1="1.4998" y1="59.0832977" x2="67.999794" y2="59.0832977"/>
	<circle class="st6" cx="35.2527008" cy="19.6662979" r="10"/>
	<line class="st6" x1="35.085701" y1="1.5002975" x2="35.085701" y2="8.5002975"/>
	<line class="st6" x1="35.085701" y1="30.5002956" x2="35.085701" y2="37.5002975"/>
	<line class="st6" x1="17.0856991" y1="19.5002975" x2="24.0856991" y2="19.5002975"/>
	<line class="st6" x1="46.085701" y1="19.5002975" x2="53.085701" y2="19.5002975"/>
	<line class="st6" x1="22.3582001" y1="6.7717972" x2="27.3081989" y2="11.7217979"/>
	<line class="st6" x1="42.8639984" y1="27.278595" x2="47.8139954" y2="32.2275963"/>
	<line class="st6" x1="22.3582001" y1="32.2277985" x2="27.3081989" y2="27.2787971"/>
	<line class="st6" x1="42.8639984" y1="11.7219963" x2="47.8139954" y2="6.7719994"/>
</g>
</svg>
