<?xml version="1.0" encoding="utf-8"?>
<!-- Generator: Adobe Illustrator 19.2.1, SVG Export Plug-In . SVG Version: 6.00 Build 0)  -->
<svg version="1.1" id="Слой_1" xmlns="http://www.w3.org/2000/svg" xmlns:xlink="http://www.w3.org/1999/xlink" x="0px" y="0px"
	 viewBox="0 0 69.5 53.2866058" style="enable-background:new 0 0 69.5 53.2866058;" xml:space="preserve">
<style type="text/css">
	.st0{fill:none;stroke:#000000;stroke-width:3;stroke-linecap:round;stroke-linejoin:round;stroke-miterlimit:10;}
	
		.st1{clip-path:url(#SVGID_2_);fill:none;stroke:#000000;stroke-width:3;stroke-linecap:round;stroke-linejoin:round;stroke-miterlimit:10;}
	
		.st2{clip-path:url(#SVGID_4_);fill:none;stroke:#000000;stroke-width:3;stroke-linecap:round;stroke-linejoin:round;stroke-miterlimit:10;}
	
		.st3{clip-path:url(#SVGID_6_);fill:none;stroke:#000000;stroke-width:3;stroke-linecap:round;stroke-linejoin:round;stroke-miterlimit:10;}
	
		.st4{clip-path:url(#SVGID_8_);fill:none;stroke:#000000;stroke-width:3;stroke-linecap:round;stroke-linejoin:round;stroke-miterlimit:10;}
</style>
<polyline class="st0" points="33.0051003,27.244606 34.7500992,25.5006065 36.4950981,27.244606 "/>
<rect x="33.5160751" y="18.0112305" transform="matrix(0.707106 -0.7071075 0.7071075 0.707106 -3.4302452 30.2085781)" class="st0" width="2.4674492" height="2.4674492"/>
<rect x="33.5160751" y="10.0112305" transform="matrix(0.707106 -0.7071075 0.7071075 0.707106 2.2266152 27.865427)" class="st0" width="2.4674492" height="2.4674492"/>
<g>
	<defs>
		<rect id="SVGID_1_" y="-0.0003929" width="69.5" height="53.2869987"/>
	</defs>
	<clipPath id="SVGID_2_">
		<use xlink:href="#SVGID_1_"  style="overflow:visible;"/>
	</clipPath>
	
		<rect x="33.5160751" y="2.0112305" transform="matrix(0.707106 -0.7071075 0.7071075 0.707106 7.8834758 25.522274)" class="st1" width="2.4674492" height="2.4674492"/>
</g>
<rect x="39.5160751" y="22.0112324" transform="matrix(0.707106 -0.7071075 0.7071075 0.707106 -4.5013127 35.6227989)" class="st0" width="2.4674492" height="2.4674492"/>
<rect x="39.5160751" y="14.0112305" transform="matrix(0.707106 -0.7071075 0.7071075 0.707106 1.1555489 33.2796478)" class="st0" width="2.4674492" height="2.4674492"/>
<rect x="39.5160751" y="6.0112305" transform="matrix(0.707106 -0.7071075 0.7071075 0.707106 6.8124094 30.9364948)" class="st0" width="2.4674492" height="2.4674492"/>
<polyline class="st0" points="45.0051003,27.244606 46.7500992,25.5006065 48.4950981,27.244606 "/>
<rect x="45.5160751" y="18.0112305" transform="matrix(0.707106 -0.7071075 0.7071075 0.707106 0.0844826 38.6938705)" class="st0" width="2.4674492" height="2.4674492"/>
<rect x="45.5160751" y="10.0112305" transform="matrix(0.707106 -0.7071075 0.7071075 0.707106 5.741343 36.3507156)" class="st0" width="2.4674492" height="2.4674492"/>
<rect x="51.5160751" y="22.0112324" transform="matrix(0.707106 -0.7071075 0.7071075 0.707106 -0.986585 44.1080894)" class="st0" width="2.4674492" height="2.4674492"/>
<g>
	<defs>
		<rect id="SVGID_3_" y="-0.0003929" width="69.5" height="53.2869987"/>
	</defs>
	<clipPath id="SVGID_4_">
		<use xlink:href="#SVGID_3_"  style="overflow:visible;"/>
	</clipPath>
	
		<rect x="63.516571" y="22.0112324" transform="matrix(0.707106 -0.7071075 0.7071075 0.707106 2.5282879 52.5937309)" class="st2" width="2.4674478" height="2.4674478"/>
</g>
<rect x="51.5160751" y="14.0112305" transform="matrix(0.707106 -0.7071075 0.7071075 0.707106 4.6702766 41.7649384)" class="st0" width="2.4674492" height="2.4674492"/>
<polyline class="st0" points="57.0051003,27.244606 58.7500992,25.5006065 60.4950981,27.244606 "/>
<rect x="57.5160751" y="18.0112305" transform="matrix(0.707106 -0.7071075 0.7071075 0.707106 3.5992105 47.1791611)" class="st0" width="2.4674492" height="2.4674492"/>
<rect x="27.5160751" y="21.8433323" transform="matrix(0.7071068 -0.7071068 0.7071068 0.7071068 -7.8973222 27.0882912)" class="st0" width="2.4674485" height="2.4674485"/>
<rect x="27.5160751" y="13.8433304" transform="matrix(0.7071068 -0.7071068 0.7071068 0.7071068 -2.2404666 24.7451458)" class="st0" width="2.4674485" height="2.4674485"/>
<rect x="27.5160751" y="5.8433309" transform="matrix(0.7071068 -0.7071068 0.7071068 0.7071068 3.4163878 22.4019985)" class="st0" width="2.4674485" height="2.4674485"/>
<polyline class="st0" points="24.4948997,27.0766068 22.7498989,25.3326073 21.0048981,27.0766068 "/>
<rect x="21.5160751" y="17.8433304" transform="matrix(0.7071068 -0.7071068 0.7071068 0.7071068 -6.8262529 21.674078)" class="st0" width="2.4674485" height="2.4674485"/>
<rect x="21.5160751" y="9.8433304" transform="matrix(0.7071068 -0.7071068 0.7071068 0.7071068 -1.1693988 19.3309307)" class="st0" width="2.4674485" height="2.4674485"/>
<rect x="15.5160751" y="21.8433323" transform="matrix(0.7071068 -0.7071068 0.7071068 0.7071068 -11.4120407 18.6030102)" class="st0" width="2.4674485" height="2.4674485"/>
<g>
	<defs>
		<rect id="SVGID_5_" y="-0.0003929" width="69.5" height="53.2869987"/>
	</defs>
	<clipPath id="SVGID_6_">
		<use xlink:href="#SVGID_5_"  style="overflow:visible;"/>
	</clipPath>
	
		<rect x="3.5160758" y="21.8433323" transform="matrix(0.7071069 -0.7071066 0.7071066 0.7071069 -14.9267559 10.1177244)" class="st3" width="2.4674487" height="2.4674487"/>
</g>
<rect x="15.5160751" y="13.8433304" transform="matrix(0.7071068 -0.7071068 0.7071068 0.7071068 -5.7551851 16.2598629)" class="st0" width="2.4674485" height="2.4674485"/>
<polyline class="st0" points="12.4948997,27.0766068 10.7498989,25.3326073 9.004899,27.0766068 "/>
<rect x="9.5160751" y="17.8433304" transform="matrix(0.7071069 -0.7071066 0.7071066 0.7071069 -10.34097 13.1887903)" class="st0" width="2.4674489" height="2.4674489"/>
<g>
	<defs>
		<rect id="SVGID_7_" y="-0.0003929" width="69.5" height="53.2869987"/>
	</defs>
	<clipPath id="SVGID_8_">
		<use xlink:href="#SVGID_7_"  style="overflow:visible;"/>
	</clipPath>
	<line class="st4" x1="1.4998" y1="28.6616058" x2="67.999794" y2="28.6616058"/>
	<polyline class="st4" points="25.6692009,46.1616058 31.2942009,51.7866058 43.0442009,40.0366058 	"/>
</g>
</svg>
