<?xml version="1.0" encoding="utf-8"?>
<!-- Generator: Adobe Illustrator 19.2.1, SVG Export Plug-In . SVG Version: 6.00 Build 0)  -->
<svg version="1.1" id="Слой_1" xmlns="http://www.w3.org/2000/svg" xmlns:xlink="http://www.w3.org/1999/xlink" x="0px" y="0px"
	 viewBox="0 0 69.5 56.7505035" style="enable-background:new 0 0 69.5 56.7505035;" xml:space="preserve">
<style type="text/css">
	
		.st0{clip-path:url(#SVGID_2_);fill:none;stroke:#000000;stroke-width:3;stroke-linecap:round;stroke-linejoin:round;stroke-miterlimit:10;}
	.st1{fill:none;stroke:#000000;stroke-width:3;stroke-linecap:round;stroke-linejoin:round;stroke-miterlimit:10;}
	
		.st2{clip-path:url(#SVGID_4_);fill:none;stroke:#000000;stroke-width:3;stroke-linecap:round;stroke-linejoin:round;stroke-miterlimit:10;}
	
		.st3{clip-path:url(#SVGID_6_);fill:none;stroke:#000000;stroke-width:3;stroke-linecap:round;stroke-linejoin:round;stroke-miterlimit:10;}
	
		.st4{clip-path:url(#SVGID_8_);fill:none;stroke:#000000;stroke-width:3;stroke-linecap:round;stroke-linejoin:round;stroke-miterlimit:10;}
	
		.st5{clip-path:url(#SVGID_10_);fill:none;stroke:#000000;stroke-width:3;stroke-linecap:round;stroke-linejoin:round;stroke-miterlimit:10;}
	
		.st6{clip-path:url(#SVGID_12_);fill:none;stroke:#000000;stroke-width:3;stroke-linecap:round;stroke-linejoin:round;stroke-miterlimit:10;}
	.st7{clip-path:url(#SVGID_12_);}
</style>
<g>
	<defs>
		<rect id="SVGID_1_" y="0.0005035" width="69.5" height="56.75"/>
	</defs>
	<clipPath id="SVGID_2_">
		<use xlink:href="#SVGID_1_"  style="overflow:visible;"/>
	</clipPath>
	<polyline class="st0" points="33.0051003,53.8340034 34.7500992,52.0890045 36.4950981,53.8340034 	"/>
</g>
<rect x="33.5158997" y="44.6002007" transform="matrix(0.7071062 -0.7071074 0.7071074 0.7071062 -22.2316303 37.9963646)" class="st1" width="2.4678032" height="2.4678032"/>
<g>
	<defs>
		<rect id="SVGID_3_" y="0.0005035" width="69.5" height="56.75"/>
	</defs>
	<clipPath id="SVGID_4_">
		<use xlink:href="#SVGID_3_"  style="overflow:visible;"/>
	</clipPath>
	
		<rect x="39.5158997" y="48.6002007" transform="matrix(0.7071062 -0.7071074 0.7071074 0.7071062 -23.3026981 43.4105835)" class="st2" width="2.4678032" height="2.4678032"/>
	<polyline class="st2" points="45.0051003,53.8340034 46.7500992,52.0890045 48.4950981,53.8340034 	"/>
</g>
<rect x="45.5158997" y="44.6002007" transform="matrix(0.7071062 -0.7071074 0.7071074 0.7071062 -18.7169056 46.4816513)" class="st1" width="2.4678032" height="2.4678032"/>
<g>
	<defs>
		<rect id="SVGID_5_" y="0.0005035" width="69.5" height="56.75"/>
	</defs>
	<clipPath id="SVGID_6_">
		<use xlink:href="#SVGID_5_"  style="overflow:visible;"/>
	</clipPath>
	
		<rect x="51.5158997" y="48.6002007" transform="matrix(0.7071062 -0.7071074 0.7071074 0.7071062 -19.7879715 51.895874)" class="st3" width="2.4678032" height="2.4678032"/>
	
		<rect x="63.5163956" y="48.6002045" transform="matrix(0.7071062 -0.7071074 0.7071074 0.7071062 -16.2731018 60.3815117)" class="st3" width="2.4678018" height="2.4678018"/>
	<polyline class="st3" points="57.0051003,53.8340034 58.7500992,52.0890045 60.4950981,53.8340034 	"/>
</g>
<rect x="57.5163994" y="44.6002007" transform="matrix(0.7071062 -0.7071074 0.7071074 0.7071062 -15.202033 54.9672928)" class="st1" width="2.4678032" height="2.4678032"/>
<g>
	<defs>
		<rect id="SVGID_7_" y="0.0005035" width="69.5" height="56.75"/>
	</defs>
	<clipPath id="SVGID_8_">
		<use xlink:href="#SVGID_7_"  style="overflow:visible;"/>
	</clipPath>
	
		<rect x="27.5158978" y="48.4322014" transform="matrix(0.7071066 -0.7071069 0.7071069 0.7071066 -26.6986217 34.8760567)" class="st4" width="2.4678023" height="2.4678023"/>
	<polyline class="st4" points="24.4948997,53.6660042 22.7498989,51.9210052 21.0048981,53.6660042 	"/>
</g>
<rect x="21.5158978" y="44.4322014" transform="matrix(0.7071066 -0.7071069 0.7071069 0.7071066 -25.6275539 29.4618435)" class="st1" width="2.4678025" height="2.4678025"/>
<g>
	<defs>
		<rect id="SVGID_9_" y="0.0005035" width="69.5" height="56.75"/>
	</defs>
	<clipPath id="SVGID_10_">
		<use xlink:href="#SVGID_9_"  style="overflow:visible;"/>
	</clipPath>
	
		<rect x="15.5158978" y="48.4322014" transform="matrix(0.7071066 -0.7071069 0.7071069 0.7071066 -30.2133427 26.3907738)" class="st5" width="2.4678023" height="2.4678023"/>
	
		<rect x="3.5158989" y="48.4322014" transform="matrix(0.7071068 -0.7071068 0.7071068 0.7071068 -33.728054 17.9054813)" class="st5" width="2.4678025" height="2.4678025"/>
	<polyline class="st5" points="12.4948997,53.6660042 10.7498989,51.9210052 9.004899,53.6660042 	"/>
</g>
<rect x="9.5158978" y="44.4322014" transform="matrix(0.7071068 -0.7071068 0.7071068 0.7071068 -29.1422672 20.9765472)" class="st1" width="2.4678028" height="2.4678028"/>
<g>
	<defs>
		<rect id="SVGID_11_" y="0.0005035" width="69.5" height="56.75"/>
	</defs>
	<clipPath id="SVGID_12_">
		<use xlink:href="#SVGID_11_"  style="overflow:visible;"/>
	</clipPath>
	<line class="st6" x1="1.4998" y1="55.2510033" x2="67.999794" y2="55.2510033"/>
	<line class="st6" x1="24.2682991" y1="1.5000038" x2="47.4052963" y2="1.5000038"/>
	<path class="st7" d="M31.7068005,6.7490044c0,0-7.9540005,0.2200012-8.8490009,7.276001
		c-0.8389988,6.618,3.0650005,11.2369995,3.0650005,11.2369995s0.3979988-4.9199982,2.1929989-5.5610008
		c0.257,4.4880028,1.3180008,6.7450008,3.1030006,9.4230003c1.3409996,2.0109997,2.3939972,2.7759991,0.8320007,7.8839989
		c9.2329979-3.9759979,8.2989998-14.1719971,8.2989998-14.1719971s2.1599998,5.4869976,4.723999,6.1279984
		c0.5130005-2.9489994,0.2560005-4.723999,2.0429993-7.5329971c2.1710014-3.4480019,2.0510025-5.7120018,1.4039993-8.2989998
		c-0.6379967-2.5540009-3.605999-6.5110016-9.2479973-6.6389999c2.435997,3.5900002,0,7.4379997,0,7.4379997
		s0-2.3090019-2.3090019-2.4370003c0.3850021,4.487999-2.3079987,5.3859978-2.3079987,5.3859978
		s0.1289978-2.0519981-2.052002-3.4629974C30.4237995,12.0070076,30.167799,9.0580063,31.7068005,6.7490044"/>
</g>
</svg>
