<?xml version="1.0" encoding="utf-8"?>
<!-- Generator: Adobe Illustrator 19.2.1, SVG Export Plug-In . SVG Version: 6.00 Build 0)  -->
<svg version="1.1" id="Слой_1" xmlns="http://www.w3.org/2000/svg" xmlns:xlink="http://www.w3.org/1999/xlink" x="0px" y="0px"
	 viewBox="0 0 70.420105 47.9174042" style="enable-background:new 0 0 70.420105 47.9174042;" xml:space="preserve">
<style type="text/css">
	
		.st0{clip-path:url(#SVGID_2_);fill:none;stroke:#000000;stroke-width:3;stroke-linecap:round;stroke-linejoin:round;stroke-miterlimit:10;}
	.st1{fill:none;stroke:#000000;stroke-width:3;stroke-linecap:round;stroke-linejoin:round;stroke-miterlimit:10;}
	
		.st2{clip-path:url(#SVGID_4_);fill:none;stroke:#000000;stroke-width:3;stroke-linecap:round;stroke-linejoin:round;stroke-miterlimit:10;}
	
		.st3{clip-path:url(#SVGID_6_);fill:none;stroke:#000000;stroke-width:3;stroke-linecap:round;stroke-linejoin:round;stroke-miterlimit:10;}
	
		.st4{clip-path:url(#SVGID_8_);fill:none;stroke:#000000;stroke-width:3;stroke-linecap:round;stroke-linejoin:round;stroke-miterlimit:10;}
	
		.st5{clip-path:url(#SVGID_10_);fill:none;stroke:#000000;stroke-width:3;stroke-linecap:round;stroke-linejoin:round;stroke-miterlimit:10;}
	
		.st6{clip-path:url(#SVGID_12_);fill:none;stroke:#000000;stroke-width:3;stroke-linecap:round;stroke-linejoin:round;stroke-miterlimit:10;}
</style>
<g>
	<defs>
		<rect id="SVGID_1_" y="0.0004044" width="70.4199982" height="47.9169998"/>
	</defs>
	<clipPath id="SVGID_2_">
		<use xlink:href="#SVGID_1_"  style="overflow:visible;"/>
	</clipPath>
	<polyline class="st0" points="33.0051003,45.0006027 34.7500992,43.2556038 36.4950981,45.0006027 	"/>
</g>
<rect x="33.5158997" y="35.7668037" transform="matrix(0.7071062 -0.7071074 0.7071074 0.7071062 -15.9854698 35.4091187)" class="st1" width="2.4678032" height="2.4678032"/>
<g>
	<defs>
		<rect id="SVGID_3_" y="0.0004044" width="70.4199982" height="47.9169998"/>
	</defs>
	<clipPath id="SVGID_4_">
		<use xlink:href="#SVGID_3_"  style="overflow:visible;"/>
	</clipPath>
	
		<rect x="39.5162964" y="39.7668037" transform="matrix(0.7071062 -0.7071074 0.7071074 0.7071062 -17.0564194 40.823616)" class="st2" width="2.467803" height="2.467803"/>
	<polyline class="st2" points="45.0051003,45.0006027 46.7500992,43.2556038 48.4950981,45.0006027 	"/>
</g>
<rect x="45.5162964" y="35.7668037" transform="matrix(0.7071062 -0.7071074 0.7071074 0.7071062 -12.4706278 43.8946838)" class="st1" width="2.4678032" height="2.4678032"/>
<g>
	<defs>
		<rect id="SVGID_5_" y="0.0004044" width="70.4199982" height="47.9169998"/>
	</defs>
	<clipPath id="SVGID_6_">
		<use xlink:href="#SVGID_5_"  style="overflow:visible;"/>
	</clipPath>
	
		<rect x="51.5162964" y="39.7668037" transform="matrix(0.7071062 -0.7071074 0.7071074 0.7071062 -13.5416946 49.3089066)" class="st3" width="2.467803" height="2.467803"/>
	
		<rect x="63.5162964" y="39.7668037" transform="matrix(0.7071062 -0.7071074 0.7071074 0.7071062 -10.026969 57.7941933)" class="st3" width="2.4678016" height="2.4678016"/>
	<polyline class="st3" points="57.0051003,45.0006027 58.7500992,43.2556038 60.4950981,45.0006027 	"/>
</g>
<rect x="57.5162964" y="35.7668037" transform="matrix(0.7071062 -0.7071074 0.7071074 0.7071062 -8.9559021 52.3799744)" class="st1" width="2.4678032" height="2.4678032"/>
<g>
	<defs>
		<rect id="SVGID_7_" y="0.0004044" width="70.4199982" height="47.9169998"/>
	</defs>
	<clipPath id="SVGID_8_">
		<use xlink:href="#SVGID_7_"  style="overflow:visible;"/>
	</clipPath>
	
		<rect x="27.5158978" y="39.5989037" transform="matrix(0.7071066 -0.7071069 0.7071069 0.7071066 -20.4525337 32.2888412)" class="st4" width="2.4678023" height="2.4678023"/>
	<polyline class="st4" points="24.4948997,44.8327026 22.7498989,43.0877037 21.0048981,44.8327026 	"/>
</g>
<rect x="21.5158978" y="35.5989037" transform="matrix(0.7071066 -0.7071069 0.7071069 0.7071066 -19.3814659 26.8746281)" class="st1" width="2.4678025" height="2.4678025"/>
<g>
	<defs>
		<rect id="SVGID_9_" y="0.0004044" width="70.4199982" height="47.9169998"/>
	</defs>
	<clipPath id="SVGID_10_">
		<use xlink:href="#SVGID_9_"  style="overflow:visible;"/>
	</clipPath>
	
		<rect x="15.5158978" y="39.5989037" transform="matrix(0.7071066 -0.7071069 0.7071069 0.7071066 -23.9672546 23.8035583)" class="st5" width="2.4678023" height="2.4678023"/>
	
		<rect x="3.5158989" y="39.5989037" transform="matrix(0.7071068 -0.7071068 0.7071068 0.7071068 -27.4819679 15.3182678)" class="st5" width="2.4678025" height="2.4678025"/>
	<polyline class="st5" points="12.4948997,44.8327026 10.7498989,43.0877037 9.004899,44.8327026 	"/>
</g>
<rect x="9.5158978" y="35.5989037" transform="matrix(0.7071068 -0.7071068 0.7071068 0.7071068 -22.896183 18.3893356)" class="st1" width="2.4678028" height="2.4678028"/>
<g>
	<defs>
		<rect id="SVGID_11_" y="0.0004044" width="70.4199982" height="47.9169998"/>
	</defs>
	<clipPath id="SVGID_12_">
		<use xlink:href="#SVGID_11_"  style="overflow:visible;"/>
	</clipPath>
	<line class="st6" x1="1.4998" y1="46.4176025" x2="67.999794" y2="46.4176025"/>
	<path class="st6" d="M68.9201965,25.966404c-2.9540024,0-2.9540024-2.5999985-5.9080009-2.5999985
		c-2.9510002,0-2.9510002,2.5999985-5.9029999,2.5999985s-2.9519997-2.5999985-5.9049988-2.5999985
		c-2.9540024,0-2.9540024,2.5999985-5.9090004,2.5999985c-2.9540024,0-2.9540024-2.5999985-5.9080009-2.5999985
		s-2.9539986,2.5999985-5.9080009,2.5999985c-2.954998,0-2.954998-2.5999985-5.9099998-2.5999985
		c-2.9529991,0-2.9529991,2.5999985-5.9059982,2.5999985c-2.9560013,0-2.9560013-2.5999985-5.9119987-2.5999985
		c-2.9570007,0-2.9570007,2.5999985-5.9150009,2.5999985s-2.9580002-2.5999985-5.9160004-2.5999985"/>
	<polyline class="st6" points="30.7786007,10.9411049 35.7285995,15.8911057 40.5596008,11.0591049 	"/>
	<line class="st6" x1="35.7527008" y1="14.8336029" x2="35.7527008" y2="1.4996033"/>
	<polyline class="st6" points="14.7785997,10.9411049 19.7285995,15.8911057 24.5595989,11.0591049 	"/>
	<line class="st6" x1="19.7527008" y1="14.8336029" x2="19.7527008" y2="1.4996033"/>
	<polyline class="st6" points="46.7785988,10.9411049 51.7285957,15.8911057 56.559597,11.0591049 	"/>
	<line class="st6" x1="51.7527008" y1="14.8336029" x2="51.7527008" y2="1.4996033"/>
</g>
</svg>
