<?xml version="1.0" encoding="utf-8"?>
<!-- Generator: Adobe Illustrator 19.2.1, SVG Export Plug-In . SVG Version: 6.00 Build 0)  -->
<svg version="1.1" id="Слой_1" xmlns="http://www.w3.org/2000/svg" xmlns:xlink="http://www.w3.org/1999/xlink" x="0px" y="0px"
	 viewBox="0 0 980 877.90802" style="enable-background:new 0 0 980 877.90802;" xml:space="preserve">
<style type="text/css">
	.st0{clip-path:url(#SVGID_2_);}
</style>
<g>
	<defs>
		<rect id="SVGID_1_" width="980" height="877.90802"/>
	</defs>
	<clipPath id="SVGID_2_">
		<use xlink:href="#SVGID_1_"  style="overflow:visible;"/>
	</clipPath>
	<path class="st0" d="M0,660.9489136v-20c0.391-2.9240112,0.802-5.8460083,1.17-8.7719727
		c5.0299997-40.0490112,21.9510002-74.1040039,50.557003-102.6820068
		c153.9570007-153.803009,307.7400208-307.7810059,461.7290039-461.552002
		c9.3909912-9.3770142,19.414978-18.3710327,30.2070313-26.0490112
		C593.4180298,6.499939,648.7470093-6.3690796,709.1040039,2.914917
		c36.1870117,5.565979,69.3839722,19.0009766,97.8930054,41.901001
		c17.8540039,14.3410034,34.0429688,30.8339844,50.3659668,46.9810181
		c23.6849976,23.4289551,47.7000122,46.6219482,69.9530029,71.3739624
		c26.1040039,29.0340576,41.6430054,63.835022,48.677002,102.2740479c1.7260132,9.4299927,2.6920166,18.9989624,4.007019,28.5039673
		v25c-0.3070068,1.6749878-0.6820068,3.342041-0.9099731,5.0270386c-1.1820068,8.7259521-1.8280029,17.5559692-3.5670166,26.1679688
		c-9.2230225,45.690979-31.2150269,84.3059998-64.1890259,117.197998
		c-122.9469604,122.6369629-245.6469727,245.5230103-368.440979,368.3139648
		c-9.1929932,9.19104-18.242981,18.5320435-27.6500244,27.4980469
		c-15.8999939,15.1539917-38.9719849,18.8919678-58.8479919,10.0169678
		c-34.5959778-15.447998-43.1629944-60.8809814-14.367981-89.4909668
		c110.0660095-109.3530273,219.6210022-219.2210083,329.3600159-328.9040222
		c22.9839478-22.9729919,46.4029541-45.5349731,68.8009644-69.0660095
		c41.6810303-43.7849731,43.072998-112.3239746,2.4210205-155.3829956
		c-30.1890259-31.9759521-61.6300049-62.8099976-93.3179932-93.315979
		c-19.8080444-19.0679932-44.6610107-28.0830078-72.052002-28.8760376
		c-33.2750244-0.9639893-61.9429932,10.5810547-85.526001,34.1540527
		C436.7189941,297.2219238,281.7399902,452.170929,126.8339996,607.1918945
		c-25.4319992,25.4510498-25.2300034,62.9070435,0.1090012,88.3900146
		c18.5660019,18.6719971,37.2130051,37.2630005,55.8579941,55.8569946c2.1180115,2.1129761,4.3310089,4.1680298,6.7100067,5.973999
		c24.7140045,18.7650146,58.5780029,16.664978,80.6639862-5.2910156
		c36.6370239-36.4249878,73.0970154-73.0279541,109.6289978-109.5599976
		c79.6630249-79.6609497,159.3260193-159.3219604,238.9820251-238.9889832
		c7.9169922-7.9179993,7.8989868-14.3249817-0.0059814-22.2510071c-6.8250122-6.8439941-13.65802-13.6809998-20.5-20.5089722
		c-8.5490112-8.5310059-14.5530396-8.5670166-22.9810181-0.1400146
		c-32.7630005,32.7569885-65.5220032,65.5190125-98.2820129,98.2790222
		c-46.6659851,46.6659851-93.3819885,93.2819519-139.9679871,140.0279846
		c-13.9660034,14.0150146-30.6190186,20.1610107-49.9609985,16.4330444
		c-20.9910278-4.0469971-35.3300171-16.8690186-41.5260162-37.3820801c-6.1369934-20.3189697-1.3369904-38.7339478,13.6349945-53.75
		c81.1950073-81.4289551,162.3800049-162.8669434,243.9530029-243.9159546
		c40.1789856-39.9210205,104.8750305-44.9349976,151.4300232-12.5250244
		c18.5999756,12.9490356,33.7769775,29.7670288,48.6889648,46.5150146
		c22.7440186,25.5460205,31.6270142,56.3460083,28.460022,90.1950073c-2.7310181,29.2059937-15.3170166,54-36.1790161,74.7779846
		c-55.8519897,55.6270447-111.5050049,111.45401-167.2600098,167.1800232
		c-61.8829651,61.8499756-123.5089722,123.9619751-185.8139648,185.3869629
		c-29.6419983,29.2230225-66.4179993,44.03302-107.8010101,45.8179932
		c-49.1679993,2.1199951-91.822998-14.3449707-127.137001-48.8139648
		c-19.4380035-18.9710083-38.4449997-38.3870239-57.5810013-57.6669922
		C27.0130005,748.1179199,11.6140003,720.749939,4.494,688.9379272C2.434,679.7338867,1.4680001,670.2858887,0,660.9489136"/>
</g>
</svg>
