<?xml version="1.0" encoding="utf-8"?>
<!-- Generator: Adobe Illustrator 19.2.1, SVG Export Plug-In . SVG Version: 6.00 Build 0)  -->
<svg version="1.1" id="Слой_1" xmlns="http://www.w3.org/2000/svg" xmlns:xlink="http://www.w3.org/1999/xlink" x="0px" y="0px"
	 viewBox="0 0 69.5 60.3336945" style="enable-background:new 0 0 69.5 60.3336945;" xml:space="preserve">
<style type="text/css">
	
		.st0{clip-path:url(#SVGID_2_);fill:none;stroke:#000000;stroke-width:3;stroke-linecap:round;stroke-linejoin:round;stroke-miterlimit:10;}
	.st1{fill:none;stroke:#000000;stroke-width:3;stroke-linecap:round;stroke-linejoin:round;stroke-miterlimit:10;}
	
		.st2{clip-path:url(#SVGID_4_);fill:none;stroke:#000000;stroke-width:3;stroke-linecap:round;stroke-linejoin:round;stroke-miterlimit:10;}
	
		.st3{clip-path:url(#SVGID_6_);fill:none;stroke:#000000;stroke-width:3;stroke-linecap:round;stroke-linejoin:round;stroke-miterlimit:10;}
	
		.st4{clip-path:url(#SVGID_8_);fill:none;stroke:#000000;stroke-width:3;stroke-linecap:round;stroke-linejoin:round;stroke-miterlimit:10;}
	
		.st5{clip-path:url(#SVGID_10_);fill:none;stroke:#000000;stroke-width:3;stroke-linecap:round;stroke-linejoin:round;stroke-miterlimit:10;}
	
		.st6{clip-path:url(#SVGID_12_);fill:none;stroke:#000000;stroke-width:3;stroke-linecap:round;stroke-linejoin:round;stroke-miterlimit:10;}
	
		.st7{clip-path:url(#SVGID_14_);fill:none;stroke:#000000;stroke-width:3;stroke-linecap:round;stroke-linejoin:round;stroke-miterlimit:10;}
</style>
<g>
	<defs>
		<rect id="SVGID_1_" y="-0.0003052" width="69.5" height="60.3339996"/>
	</defs>
	<clipPath id="SVGID_2_">
		<use xlink:href="#SVGID_1_"  style="overflow:visible;"/>
	</clipPath>
	<polyline class="st0" points="33.0051003,57.4172935 34.7500992,55.6722946 36.4950981,57.4172935 	"/>
</g>
<rect x="33.5160751" y="48.1835213" transform="matrix(0.7069034 -0.7073101 0.7073101 0.7069034 -24.7682686 39.0629082)" class="st1" width="2.4674494" height="2.4674494"/>
<g>
	<defs>
		<rect id="SVGID_3_" y="-0.0003052" width="69.5" height="60.3339996"/>
	</defs>
	<clipPath id="SVGID_4_">
		<use xlink:href="#SVGID_3_"  style="overflow:visible;"/>
	</clipPath>
	
		<rect x="39.5160751" y="52.1835213" transform="matrix(0.7069035 -0.70731 0.70731 0.7069035 -25.8389263 44.4791489)" class="st2" width="2.4674494" height="2.4674494"/>
	<polyline class="st2" points="45.0051003,57.4172935 46.7500992,55.6722946 48.4950981,57.4172935 	"/>
</g>
<rect x="45.5164719" y="48.1835213" transform="matrix(0.7069034 -0.7073101 0.7073101 0.7069034 -21.2509918 47.5509109)" class="st1" width="2.4674494" height="2.4674494"/>
<g>
	<defs>
		<rect id="SVGID_5_" y="-0.0003052" width="69.5" height="60.3339996"/>
	</defs>
	<clipPath id="SVGID_6_">
		<use xlink:href="#SVGID_5_"  style="overflow:visible;"/>
	</clipPath>
	
		<rect x="51.5164719" y="52.1835213" transform="matrix(0.7069035 -0.70731 0.70731 0.7069035 -22.3216534 52.9671478)" class="st3" width="2.4674494" height="2.4674494"/>
	
		<rect x="63.516571" y="52.1835213" transform="matrix(0.7069035 -0.70731 0.70731 0.7069035 -18.8044662 61.454937)" class="st3" width="2.4674482" height="2.4674482"/>
	<polyline class="st3" points="57.0051003,57.4172935 58.7500992,55.6722946 60.4950981,57.4172935 	"/>
</g>
<rect x="57.5164719" y="48.1835213" transform="matrix(0.7069034 -0.7073101 0.7073101 0.7069034 -17.7338333 56.0386314)" class="st1" width="2.4674494" height="2.4674494"/>
<g>
	<defs>
		<rect id="SVGID_7_" y="-0.0003052" width="69.5" height="60.3339996"/>
	</defs>
	<clipPath id="SVGID_8_">
		<use xlink:href="#SVGID_7_"  style="overflow:visible;"/>
	</clipPath>
	
		<rect x="27.5160751" y="52.0155182" transform="matrix(0.7073092 -0.7069043 0.7069043 0.7073092 -29.2273178 35.9089203)" class="st4" width="2.4674489" height="2.4674489"/>
	<polyline class="st4" points="24.4948997,57.2493935 22.7498989,55.5043945 21.0048981,57.2493935 	"/>
</g>
<rect x="21.5160751" y="48.0155182" transform="matrix(0.7073093 -0.7069042 0.7069042 0.7073093 -28.1558437 30.4967232)" class="st1" width="2.4674489" height="2.4674489"/>
<g>
	<defs>
		<rect id="SVGID_9_" y="-0.0003052" width="69.5" height="60.3339996"/>
	</defs>
	<clipPath id="SVGID_10_">
		<use xlink:href="#SVGID_9_"  style="overflow:visible;"/>
	</clipPath>
	
		<rect x="15.5160751" y="52.0155182" transform="matrix(0.7073092 -0.7069043 0.7069043 0.7073092 -32.7396088 27.4260693)" class="st5" width="2.4674489" height="2.4674489"/>
	
		<rect x="3.5160756" y="52.0155182" transform="matrix(0.7073094 -0.7069041 0.7069041 0.7073094 -36.2518883 18.9432068)" class="st5" width="2.4674492" height="2.4674492"/>
	<polyline class="st5" points="12.4948997,57.2493935 10.7498989,55.5043945 9.004899,57.2493935 	"/>
</g>
<rect x="9.5160751" y="48.0155182" transform="matrix(0.7073095 -0.706904 0.706904 0.7073095 -31.6681232 22.0138626)" class="st1" width="2.4674492" height="2.4674492"/>
<g>
	<defs>
		<rect id="SVGID_11_" y="-0.0003052" width="69.5" height="60.3339996"/>
	</defs>
	<clipPath id="SVGID_12_">
		<use xlink:href="#SVGID_11_"  style="overflow:visible;"/>
	</clipPath>
	<line class="st6" x1="1.4998" y1="58.8333931" x2="67.999794" y2="58.8333931"/>
</g>
<rect x="12.4780006" y="23.0836945" class="st1" width="44.9939995" height="3.5"/>
<polyline class="st1" points="16.4132996,22.0833931 25.9132996,12.5833931 43.4132996,12.5833931 53.5382996,22.7083931 "/>
<g>
	<defs>
		<rect id="SVGID_13_" y="-0.0003052" width="69.5" height="60.3339996"/>
	</defs>
	<clipPath id="SVGID_14_">
		<use xlink:href="#SVGID_13_"  style="overflow:visible;"/>
	</clipPath>
	<line class="st7" x1="30.0294991" y1="12.3333931" x2="30.0294991" y2="1.5003929"/>
	<line class="st7" x1="39.0294991" y1="12.3333931" x2="39.0294991" y2="1.5003929"/>
</g>
<line class="st1" x1="30.4757996" y1="39.5003967" x2="30.4757996" y2="31.5003948"/>
<line class="st1" x1="39.4757996" y1="39.5003967" x2="39.4757996" y2="31.5003948"/>
<line class="st1" x1="48.4757996" y1="39.5003967" x2="48.4757996" y2="31.5003948"/>
<line class="st1" x1="21.4757996" y1="39.5003967" x2="21.4757996" y2="31.5003948"/>
</svg>
