<?xml version="1.0" encoding="utf-8"?>
<!-- Generator: Adobe Illustrator 19.2.1, SVG Export Plug-In . SVG Version: 6.00 Build 0)  -->
<svg version="1.1" id="Слой_1" xmlns="http://www.w3.org/2000/svg" xmlns:xlink="http://www.w3.org/1999/xlink" x="0px" y="0px"
	 viewBox="0 0 80.780899 55.9582062" style="enable-background:new 0 0 80.780899 55.9582062;" xml:space="preserve">
<style type="text/css">
	
		.st0{clip-path:url(#SVGID_2_);fill:none;stroke:#000000;stroke-width:3;stroke-linecap:round;stroke-linejoin:round;stroke-miterlimit:10;}
	
		.st1{clip-path:url(#SVGID_2_);fill:none;stroke:#000000;stroke-width:3;stroke-linecap:round;stroke-linejoin:round;stroke-miterlimit:10;stroke-dasharray:6,7;}
</style>
<g>
	<defs>
		<rect id="SVGID_1_" y="0.000206" width="80.7809982" height="55.9580002"/>
	</defs>
	<clipPath id="SVGID_2_">
		<use xlink:href="#SVGID_1_"  style="overflow:visible;"/>
	</clipPath>
	<polyline class="st0" points="37.0948982,18.7343063 16.0648975,18.717308 1.5038986,51.0193062 1.499897,54.356308 
		79.2768936,54.4583054 79.280899,51.1223068 64.1688919,18.988308 58.624897,18.9713097 	"/>
	<path class="st0" d="M48.1036987,1.4999046c7.8149986,0,11.5289993,6.0349998,11.5289993,11.2190018
		s-8.9750023,18.9559975-11.3740005,21.3549995"/>
	<path class="st0" d="M48.4132996,1.4999046c-7.814003,0-11.5279999,6.0349998-11.5279999,11.2190018
		s8.7429962,18.8789978,11.1409988,21.2779999"/>
	<circle class="st0" cx="48.1038513" cy="12.7192087" r="6.2942505"/>
	<path class="st1" d="M21.6329994,18.7407074c0,0,2.2079983,14.2450027,16.6660004,19.6669998
		c10.6669998,4,21.6669998,3.6660004,26.666996,14"/>
	<polyline class="st0" points="11.9659996,47.1850052 17.6329994,41.4070053 22.2989998,47.1850052 27.6329994,41.4070053 
		33.9659996,47.1850052 	"/>
</g>
</svg>
