<?xml version="1.0" encoding="utf-8"?>
<!-- Generator: Adobe Illustrator 19.2.1, SVG Export Plug-In . SVG Version: 6.00 Build 0)  -->
<svg version="1.1" id="Слой_1" xmlns="http://www.w3.org/2000/svg" xmlns:xlink="http://www.w3.org/1999/xlink" x="0px" y="0px"
	 viewBox="0 0 69.5 55.2507019" style="enable-background:new 0 0 69.5 55.2507019;" xml:space="preserve">
<style type="text/css">
	
		.st0{clip-path:url(#SVGID_2_);fill:none;stroke:#000000;stroke-width:3;stroke-linecap:round;stroke-linejoin:round;stroke-miterlimit:10;}
	.st1{fill:none;stroke:#000000;stroke-width:3;stroke-linecap:round;stroke-linejoin:round;stroke-miterlimit:10;}
	
		.st2{clip-path:url(#SVGID_4_);fill:none;stroke:#000000;stroke-width:3;stroke-linecap:round;stroke-linejoin:round;stroke-miterlimit:10;}
	
		.st3{clip-path:url(#SVGID_6_);fill:none;stroke:#000000;stroke-width:3;stroke-linecap:round;stroke-linejoin:round;stroke-miterlimit:10;}
	
		.st4{clip-path:url(#SVGID_8_);fill:none;stroke:#000000;stroke-width:3;stroke-linecap:round;stroke-linejoin:round;stroke-miterlimit:10;}
	
		.st5{clip-path:url(#SVGID_10_);fill:none;stroke:#000000;stroke-width:3;stroke-linecap:round;stroke-linejoin:round;stroke-miterlimit:10;}
	
		.st6{clip-path:url(#SVGID_12_);fill:none;stroke:#000000;stroke-width:3;stroke-linecap:round;stroke-linejoin:round;stroke-miterlimit:10;}
</style>
<g>
	<defs>
		<rect id="SVGID_1_" y="-0.0002975" width="69.5" height="55.2509995"/>
	</defs>
	<clipPath id="SVGID_2_">
		<use xlink:href="#SVGID_1_"  style="overflow:visible;"/>
	</clipPath>
	<polyline class="st0" points="33.0051003,52.3340034 34.7500992,50.5890007 36.4950981,52.3340034 	"/>
</g>
<rect x="33.5162964" y="43.1002007" transform="matrix(0.7071062 -0.7071074 0.7071074 0.7071062 -21.1708527 37.5573044)" class="st1" width="2.4678032" height="2.4678032"/>
<g>
	<defs>
		<rect id="SVGID_3_" y="-0.0002975" width="69.5" height="55.2509995"/>
	</defs>
	<clipPath id="SVGID_4_">
		<use xlink:href="#SVGID_3_"  style="overflow:visible;"/>
	</clipPath>
	
		<rect x="39.5162964" y="47.1002007" transform="matrix(0.7071062 -0.7071074 0.7071074 0.7071062 -22.2419186 42.9715233)" class="st2" width="2.467803" height="2.467803"/>
	<polyline class="st2" points="45.0051003,52.3340034 46.7500992,50.5890007 48.4950981,52.3340034 	"/>
</g>
<rect x="45.5162964" y="43.1002007" transform="matrix(0.7071062 -0.7071074 0.7071074 0.7071062 -17.656126 46.0425911)" class="st1" width="2.4678032" height="2.4678032"/>
<g>
	<defs>
		<rect id="SVGID_5_" y="-0.0002975" width="69.5" height="55.2509995"/>
	</defs>
	<clipPath id="SVGID_6_">
		<use xlink:href="#SVGID_5_"  style="overflow:visible;"/>
	</clipPath>
	
		<rect x="51.5162964" y="47.1002007" transform="matrix(0.7071062 -0.7071074 0.7071074 0.7071062 -18.7271938 51.45681)" class="st3" width="2.467803" height="2.467803"/>
	
		<rect x="63.5162964" y="47.1002007" transform="matrix(0.7071062 -0.7071074 0.7071074 0.7071062 -15.2124681 59.9421005)" class="st3" width="2.4678016" height="2.4678016"/>
	<polyline class="st3" points="57.0051003,52.3340034 58.7500992,50.5890007 60.4950981,52.3340034 	"/>
</g>
<rect x="57.5162964" y="43.1002007" transform="matrix(0.7071062 -0.7071074 0.7071074 0.7071062 -14.1414013 54.5278816)" class="st1" width="2.4678032" height="2.4678032"/>
<g>
	<defs>
		<rect id="SVGID_7_" y="-0.0002975" width="69.5" height="55.2509995"/>
	</defs>
	<clipPath id="SVGID_8_">
		<use xlink:href="#SVGID_7_"  style="overflow:visible;"/>
	</clipPath>
	
		<rect x="27.5162983" y="46.9323006" transform="matrix(0.7071066 -0.7071069 0.7071069 0.7071066 -25.6379128 34.4370308)" class="st4" width="2.4678023" height="2.4678023"/>
	<polyline class="st4" points="24.4948997,52.1661034 22.7498989,50.4211006 21.0048981,52.1661034 	"/>
</g>
<rect x="21.5158978" y="42.9323006" transform="matrix(0.7071066 -0.7071069 0.7071069 0.7071066 -24.5669632 29.0225315)" class="st1" width="2.4678025" height="2.4678025"/>
<g>
	<defs>
		<rect id="SVGID_9_" y="-0.0002975" width="69.5" height="55.2509995"/>
	</defs>
	<clipPath id="SVGID_10_">
		<use xlink:href="#SVGID_9_"  style="overflow:visible;"/>
	</clipPath>
	
		<rect x="15.5158978" y="46.9323006" transform="matrix(0.7071066 -0.7071069 0.7071069 0.7071066 -29.1527519 25.9514637)" class="st5" width="2.4678023" height="2.4678023"/>
	
		<rect x="3.5158989" y="46.9323006" transform="matrix(0.7071068 -0.7071068 0.7071068 0.7071068 -32.6674652 17.4661694)" class="st5" width="2.4678025" height="2.4678025"/>
	<polyline class="st5" points="12.4948997,52.1661034 10.7498989,50.4211006 9.004899,52.1661034 	"/>
</g>
<rect x="9.5158978" y="42.9323006" transform="matrix(0.7071068 -0.7071068 0.7071068 0.7071068 -28.0816765 20.5372372)" class="st1" width="2.4678028" height="2.4678028"/>
<g>
	<defs>
		<rect id="SVGID_11_" y="-0.0002975" width="69.5" height="55.2509995"/>
	</defs>
	<clipPath id="SVGID_12_">
		<use xlink:href="#SVGID_11_"  style="overflow:visible;"/>
	</clipPath>
	<line class="st6" x1="1.5002" y1="53.7510033" x2="68.0001984" y2="53.7510033"/>
	<line class="st6" x1="34.4426003" y1="1.5" x2="34.4426003" y2="30.7740002"/>
	<polyline class="st6" points="30.4088993,4.2286034 34.473896,8.2926064 38.405899,4.3616066 	"/>
</g>
<polyline class="st1" points="30.4088993,28.0264015 34.473896,23.9624023 38.405899,27.8934021 "/>
<line class="st1" x1="21.5529995" y1="9.0987015" x2="47.2689972" y2="23.0867043"/>
<polyline class="st1" points="22.0216999,13.9454002 27.5356998,12.3164024 25.9596996,6.9844017 "/>
<polyline class="st1" points="42.9275017,25.3174019 41.2994995,19.8034019 46.6315002,18.228405 "/>
<line class="st1" x1="47.2687988" y1="9.0987015" x2="21.5527992" y2="23.0867043"/>
<polyline class="st1" points="46.7995987,13.9454002 41.2865982,12.3164024 42.8615952,6.9844017 "/>
<polyline class="st1" points="25.8938007,25.3174019 27.5217991,19.8034019 22.1898003,18.228405 "/>
</svg>
